#define arrowl_width 8
#define arrowl_height 13
static unsigned char arrowl_bits[] = {
   0x80, 0xc0, 0xe0, 0xf0, 0xf8, 0xfc, 0xfe, 0xfc, 0xf8, 0xf0, 0xe0, 0xc0,
   0x80 };
