#define battery8_width 15
#define battery8_height 13
static unsigned char battery8_bits[] = {
   0x00, 0x00, 0x00, 0x00, 0x00, 0x00, 0xff, 0x3f, 0x01, 0x20, 0xfd, 0x63,
   0xfd, 0x43, 0xfd, 0x63, 0x01, 0x20, 0xff, 0x3f, 0x00, 0x00, 0x00, 0x00,
   0x00, 0x00 };
