#define battery10_ios_width 17
#define battery10_ios_height 13
static unsigned char battery10_ios_bits[] = {
   0x00, 0x00, 0x00, 0xfc, 0x7f, 0x00, 0xfe, 0xff, 0x00, 0x02, 0xc0, 0x00,
   0xfa, 0xdf, 0x00, 0x0a, 0x90, 0x00, 0x0a, 0xb0, 0x00, 0x0a, 0x90, 0x00,
   0xfa, 0xdf, 0x00, 0x02, 0xc0, 0x00, 0xfe, 0xff, 0x00, 0xfc, 0x7f, 0x00,
   0x00, 0x00, 0x00 };
