#define battery10_width 15
#define battery10_height 13
static unsigned char battery10_bits[] = {
   0x00, 0x00, 0x00, 0x00, 0x00, 0x00, 0xfe, 0x1f, 0x02, 0x10, 0xfa, 0x37,
   0xfa, 0x27, 0xfa, 0x37, 0x02, 0x10, 0xfe, 0x1f, 0x00, 0x00, 0x00, 0x00,
   0x00, 0x00 };
