#define battery7_width 15
#define battery7_height 13
static unsigned char battery7_bits[] = {
   0x00, 0x00, 0x00, 0x00, 0x00, 0x00, 0xff, 0x3f, 0x01, 0x20, 0xfd, 0x61,
   0xfd, 0x41, 0xfd, 0x61, 0x01, 0x20, 0xff, 0x3f, 0x00, 0x00, 0x00, 0x00,
   0x00, 0x00 };
