#define battery6_width 15
#define battery6_height 13
static unsigned char battery6_bits[] = {
   0x00, 0x00, 0x00, 0x00, 0x00, 0x00, 0xff, 0x3f, 0x01, 0x20, 0xfd, 0x60,
   0xfd, 0x40, 0xfd, 0x60, 0x01, 0x20, 0xff, 0x3f, 0x00, 0x00, 0x00, 0x00,
   0x00, 0x00 };
