#define battery3_width 15
#define battery3_height 13
static unsigned char battery3_bits[] = {
   0x00, 0x00, 0x00, 0x00, 0x00, 0x00, 0xff, 0x3f, 0x01, 0x20, 0x1d, 0x60,
   0x1d, 0x40, 0x1d, 0x60, 0x01, 0x20, 0xff, 0x3f, 0x00, 0x00, 0x00, 0x00,
   0x00, 0x00 };
