#define battery0_ios_width 17
#define battery0_ios_height 13
static unsigned char battery0_ios_bits[] = {
   0x00, 0x00, 0x00, 0xfc, 0x7f, 0x00, 0xfe, 0xff, 0x00, 0x02, 0xc0, 0x00,
   0xfa, 0xdf, 0x00, 0xfa, 0x9f, 0x00, 0xfa, 0xbf, 0x00, 0xfa, 0x9f, 0x00,
   0xfa, 0xdf, 0x00, 0x02, 0xc0, 0x00, 0xfe, 0xff, 0x00, 0xfc, 0x7f, 0x00,
   0x00, 0x00, 0x00 };
