#define battery4_width 15
#define battery4_height 13
static unsigned char battery4_bits[] = {
   0x00, 0x00, 0x00, 0x00, 0x00, 0x00, 0xff, 0x3f, 0x01, 0x20, 0x3d, 0x60,
   0x3d, 0x40, 0x3d, 0x60, 0x01, 0x20, 0xff, 0x3f, 0x00, 0x00, 0x00, 0x00,
   0x00, 0x00 };
