#define battery9_width 15
#define battery9_height 13
static unsigned char battery9_bits[] = {
   0x00, 0x00, 0x00, 0x00, 0x00, 0x00, 0xff, 0x3f, 0x01, 0x20, 0xfd, 0x67,
   0xfd, 0x47, 0xfd, 0x67, 0x01, 0x20, 0xff, 0x3f, 0x00, 0x00, 0x00, 0x00,
   0x00, 0x00 };
