#define battery5_width 15
#define battery5_height 13
static unsigned char battery5_bits[] = {
   0x00, 0x00, 0x00, 0x00, 0x00, 0x00, 0xfe, 0x1f, 0x02, 0x10, 0x7a, 0x30,
   0x7a, 0x20, 0x7a, 0x30, 0x02, 0x10, 0xfe, 0x1f, 0x00, 0x00, 0x00, 0x00,
   0x00, 0x00 };
