#define battery1_width 15
#define battery1_height 13
static unsigned char battery1_bits[] = {
   0x00, 0x00, 0x00, 0x00, 0x00, 0x00, 0xff, 0x3f, 0x01, 0x20, 0x05, 0x60,
   0x05, 0x40, 0x05, 0x60, 0x01, 0x20, 0xff, 0x3f, 0x00, 0x00, 0x00, 0x00,
   0x00, 0x00 };
