#define clock_width 9
#define clock_height 13
static unsigned char clock_bits[] = {
   0x00, 0x00, 0x00, 0x00, 0x00, 0x00, 0x38, 0x00, 0x6c, 0x00, 0xee, 0x00,
   0xce, 0x00, 0xfe, 0x00, 0x7c, 0x00, 0x38, 0x00, 0x00, 0x00, 0x00, 0x00,
   0x00, 0x00 };
