#define cpu_width 10
#define cpu_height 13
static unsigned char cpu_bits[] = {
   0x00, 0x00, 0x00, 0x00, 0x00, 0x00, 0xac, 0x01, 0x04, 0x01, 0x70, 0x00,
   0x74, 0x01, 0x70, 0x00, 0x04, 0x01, 0xac, 0x01, 0x00, 0x00, 0x00, 0x00,
   0x00, 0x00 };
