#define cpu_ios_width 13
#define cpu_ios_height 13
static unsigned char cpu_ios_bits[] = {
   0x00, 0x00, 0xfc, 0x07, 0xfe, 0x0f, 0xa6, 0x0c, 0xf6, 0x0d, 0x1e, 0x0f,
   0x16, 0x0d, 0x1e, 0x0f, 0xf6, 0x0d, 0xa6, 0x0c, 0xfe, 0x0f, 0xfc, 0x07,
   0x00, 0x00 };
