#define diskette_width 10
#define diskette_height 13
static unsigned char diskette_bits[] = {
   0x00, 0x00, 0x00, 0x00, 0x00, 0x00, 0xfe, 0x01, 0x02, 0x01, 0x02, 0x01,
   0x02, 0x01, 0x7a, 0x01, 0x6a, 0x01, 0x6a, 0x01, 0xfc, 0x01, 0x00, 0x00,
   0x00, 0x00 };
