#define diskette_ios_width 14
#define diskette_ios_height 13
static unsigned char diskette_ios_bits[] = {
   0x00, 0x00, 0xfc, 0x0f, 0xfe, 0x1f, 0x06, 0x18, 0xf6, 0x1b, 0xf6, 0x1b,
   0xf6, 0x1b, 0x16, 0x1a, 0x56, 0x1a, 0x56, 0x1a, 0x0e, 0x18, 0xfc, 0x0f,
   0x00, 0x00 };
