#define fox_width 10
#define fox_height 13
static unsigned char fox_bits[] = {
   0x00, 0x00, 0x00, 0x00, 0x00, 0x00, 0x02, 0x01, 0x86, 0x01, 0x7a, 0x01,
   0xfe, 0x01, 0x32, 0x01, 0xfc, 0x00, 0x7a, 0x01, 0x00, 0x00, 0x00, 0x00,
   0x00, 0x00 };
