#define home_width 22
#define home_height 13
static unsigned char home_bits[] = {
   0x00, 0x00, 0x00, 0x00, 0x00, 0x00, 0x00, 0x00, 0x00, 0x00, 0x00, 0x00,
   0xd2, 0x8b, 0x1e, 0x52, 0xda, 0x02, 0x5e, 0xaa, 0x0e, 0x52, 0x8a, 0x02,
   0xd2, 0x8b, 0x1e, 0x00, 0x00, 0x00, 0x00, 0x00, 0x00, 0x00, 0x00, 0x00,
   0x00, 0x00, 0x00 };
