#define mem_width 10
#define mem_height 13
static unsigned char mem_bits[] = {
   0x00, 0x00, 0x00, 0x00, 0x00, 0x00, 0x54, 0x01, 0x00, 0x00, 0xfc, 0x01,
   0xfc, 0x01, 0xfc, 0x01, 0x00, 0x00, 0x54, 0x01, 0x00, 0x00, 0x00, 0x00,
   0x00, 0x00 };
