#define network_ios_width 14
#define network_ios_height 13
static unsigned char network_ios_bits[] = {
   0x00, 0x00, 0xfc, 0x0f, 0xfe, 0x1f, 0x06, 0x1f, 0x36, 0x18, 0xb6, 0x1b,
   0x86, 0x1b, 0x1e, 0x18, 0xde, 0x1e, 0x06, 0x18, 0xfe, 0x1f, 0xfc, 0x0f,
   0x00, 0x00 };
