#define network_width 10
#define network_height 13
static unsigned char network_bits[] = {
   0x00, 0x00, 0x00, 0x00, 0x00, 0x00, 0x3e, 0x00, 0xf2, 0x01, 0x12, 0x01,
   0x1e, 0x01, 0xf8, 0x01, 0x48, 0x00, 0xfe, 0x01, 0x00, 0x00, 0x00, 0x00,
   0x00, 0x00 };
