#define root_width 20
#define root_height 13
static unsigned char root_bits[] = {
   0x00, 0x00, 0x00, 0x00, 0x00, 0x00, 0x00, 0x00, 0x00, 0x00, 0x00, 0x00,
   0xde, 0x7b, 0x07, 0x52, 0x4a, 0x02, 0x5e, 0x4a, 0x02, 0x4a, 0x4a, 0x02,
   0xd2, 0x7b, 0x02, 0x00, 0x00, 0x00, 0x00, 0x00, 0x00, 0x00, 0x00, 0x00,
   0x00, 0x00, 0x00 };
