#define temp_width 20
#define temp_height 13
static unsigned char temp_bits[] = {
   0x00, 0x00, 0x00, 0x00, 0x00, 0x00, 0x00, 0x00, 0x00, 0x40, 0x18, 0x00,
   0x00, 0x1c, 0x00, 0x40, 0x0e, 0x00, 0x80, 0x05, 0x00, 0x40, 0x02, 0x00,
   0x40, 0x02, 0x00, 0x80, 0x01, 0x00, 0x00, 0x00, 0x00, 0x00, 0x00, 0x00,
   0x00, 0x00, 0x00 };
