#define temp_ios_width 13
#define temp_ios_height 13
static unsigned char temp_ios_bits[] = {
   0x00, 0x00, 0xfc, 0x07, 0xfe, 0x0f, 0xf6, 0x0c, 0x7e, 0x0c, 0x36, 0x0e,
   0x4e, 0x0f, 0xb6, 0x0f, 0xb6, 0x0f, 0xce, 0x0f, 0xfe, 0x0f, 0xfc, 0x07,
   0x00, 0x00 };
