#define term_width 10
#define term_height 13
static unsigned char term_bits[] = {
   0x00, 0x00, 0x00, 0x00, 0x00, 0x00, 0xfe, 0x01, 0x02, 0x01, 0x0a, 0x01,
   0x12, 0x01, 0x0a, 0x01, 0x02, 0x01, 0xfe, 0x01, 0x00, 0x00, 0x00, 0x00,
   0x00, 0x00 };
