#define up_width 9
#define up_height 13
static unsigned char up_bits[] = {
   0x00, 0x00, 0x00, 0x00, 0x00, 0x00, 0x10, 0x00, 0x38, 0x00, 0x7c, 0x00,
   0xfe, 0x00, 0x38, 0x00, 0x38, 0x00, 0x1c, 0x00, 0x00, 0x00, 0x00, 0x00,
   0x00, 0x00 };
