#define up_ios_width 13
#define up_ios_height 13
static unsigned char up_ios_bits[] = {
   0x00, 0x00, 0xfc, 0x07, 0xfe, 0x0f, 0xbe, 0x0f, 0x1e, 0x0f, 0x0e, 0x0e,
   0x06, 0x0c, 0x1e, 0x0f, 0x1e, 0x0f, 0x8e, 0x0f, 0xfe, 0x0f, 0xfc, 0x07,
   0x00, 0x00 };
