#define volume0_ios_width 13
#define volume0_ios_height 13
static unsigned char volume0_ios_bits[] = {
   0x00, 0x00, 0xfc, 0x07, 0xfe, 0x0f, 0xb6, 0x0f, 0xae, 0x0f, 0xd6, 0x0f,
   0xa6, 0x0f, 0x46, 0x0f, 0x9e, 0x0e, 0xbe, 0x0f, 0xfe, 0x0f, 0xfc, 0x07,
   0x00, 0x00 };
