#define volume1_ios_width 13
#define volume1_ios_height 13
static unsigned char volume1_ios_bits[] = {
   0x00, 0x00, 0xfc, 0x07, 0xfe, 0x0f, 0xbe, 0x0f, 0x9e, 0x0f, 0x86, 0x0e,
   0x86, 0x0e, 0x86, 0x0e, 0x9e, 0x0f, 0xbe, 0x0f, 0xfe, 0x0f, 0xfc, 0x07,
   0x00, 0x00 };
