#define volume0_width 10
#define volume0_height 13
static unsigned char volume0_bits[] = {
   0x00, 0x00, 0x00, 0x00, 0x00, 0x00, 0x24, 0x00, 0x28, 0x00, 0x14, 0x00,
   0x2c, 0x00, 0x5c, 0x00, 0xb0, 0x00, 0x20, 0x00, 0x00, 0x00, 0x00, 0x00,
   0x00, 0x00 };
