#define volume1_width 10
#define volume1_height 13
static unsigned char volume1_bits[] = {
   0x00, 0x00, 0x00, 0x00, 0x00, 0x00, 0x20, 0x00, 0x30, 0x00, 0xbc, 0x00,
   0xbc, 0x00, 0xbc, 0x00, 0x30, 0x00, 0x20, 0x00, 0x00, 0x00, 0x00, 0x00,
   0x00, 0x00 };
