#define wifi_ios_width 14
#define wifi_ios_height 13
static unsigned char wifi_ios_bits[] = {
   0x00, 0x00, 0xfc, 0x0f, 0xfe, 0x1f, 0xfe, 0x19, 0xfe, 0x19, 0x3e, 0x19,
   0x3e, 0x19, 0x26, 0x19, 0x26, 0x19, 0x26, 0x19, 0xfe, 0x1f, 0xfc, 0x0f,
   0x00, 0x00 };
