#define bspwm_width 28
#define bspwm_height 13
static unsigned char bspwm_bits[] = {
   0x00, 0x00, 0x00, 0x00, 0x00, 0x00, 0x00, 0x00, 0x00, 0x00, 0x00, 0x00,
   0x00, 0x00, 0x00, 0x00, 0xde, 0x7b, 0x51, 0x04, 0x52, 0x48, 0xd1, 0x06,
   0xce, 0x7b, 0x55, 0x05, 0x12, 0x0a, 0x5b, 0x04, 0xde, 0x0b, 0x51, 0x04,
   0x00, 0x00, 0x00, 0x00, 0x00, 0x00, 0x00, 0x00, 0x00, 0x00, 0x00, 0x00,
   0x00, 0x00, 0x00, 0x00 };
